<?xml version="1.0" standalone="no"?>
<!DOCTYPE svg PUBLIC "-//W3C//DTD SVG 20010904//EN" "http://www.w3.org/TR/2001/REC-SVG-20010904/DTD/svg10.dtd">
<svg version="1.0" xmlns="http://www.w3.org/2000/svg" viewBox="0 0 1320 508" fill="#014d74">

  <g transform="translate(0.000000,508.000000) scale(0.100000,-0.100000)">
    <path d="M6405 4975 c-32 -66 -48 -86 -132 -158 -177 -151 -208 -180 -276
-261 -65 -76 -137 -202 -137 -236 1 -11 4 -9 12 5 13 24 114 142 143 168 11 9
29 22 40 29 19 10 19 10 -1 -13 -68 -78 -224 -341 -224 -379 0 -7 19 16 42 51
66 98 148 179 237 233 45 27 83 47 86 44 3 -2 -25 -26 -60 -52 -67 -49 -194
-181 -229 -239 -13 -20 17 4 79 62 188 179 382 281 536 281 74 0 146 -22 256
-80 l93 -48 32 61 c45 85 146 184 230 225 36 17 74 32 82 32 24 0 31 28 12 49
-26 28 -185 107 -271 134 -44 14 -129 36 -190 48 -82 17 -135 35 -206 71 -54
26 -102 48 -107 48 -6 0 -27 -34 -47 -75z" />
    <path d="M7985 4777 l-80 -31 -265 -1 c-297 -1 -283 2 -419 -79 -139 -83 -271
-236 -271 -314 0 -19 4 -23 18 -17 99 41 129 46 217 42 71 -3 103 -10 150 -31
33 -15 120 -47 193 -71 152 -50 225 -91 299 -167 56 -58 92 -123 118 -211 15
-53 20 -59 65 -82 26 -13 58 -38 69 -54 27 -37 51 -105 51 -142 0 -16 5 -29
11 -29 8 0 9 16 6 48 -3 26 -3 38 0 28 4 -15 7 -16 15 -5 11 17 2 -168 -13
-279 -10 -70 -6 -106 7 -66 12 38 89 184 92 175 2 -5 -15 -62 -38 -126 -22
-65 -39 -120 -37 -122 3 -2 28 38 58 88 29 51 55 86 57 80 10 -31 -164 -408
-276 -596 -90 -153 -128 -205 -198 -277 -72 -74 -133 -113 -259 -168 -161 -70
-305 -138 -305 -145 0 -4 15 -4 33 -1 l32 6 -35 -17 c-19 -9 -67 -32 -107 -50
-110 -51 -246 -147 -305 -214 -58 -67 -74 -64 -33 6 41 69 158 189 244 249
106 75 162 104 349 185 89 39 187 87 217 107 115 76 235 231 304 394 36 84 39
103 11 67 -58 -73 -328 -213 -445 -230 -39 -6 -39 -6 -15 8 14 8 32 14 40 15
32 0 222 102 297 159 171 129 232 223 264 410 10 60 16 121 14 137 -25 167
-53 236 -112 281 l-31 24 1 -133 c2 -232 -34 -330 -173 -469 -105 -106 -153
-138 -405 -274 -277 -150 -343 -196 -436 -308 -57 -69 -62 -57 -14 32 19 35
32 67 30 71 -12 20 -233 84 -325 95 -30 4 -64 9 -75 11 -15 4 -12 -1 10 -17
68 -51 249 -238 296 -306 56 -82 105 -181 115 -233 5 -31 -1 -24 -51 50 -32
47 -74 105 -94 130 -68 84 -226 235 -366 350 -216 177 -311 278 -368 391 -44
87 -50 108 -77 274 -17 99 -30 185 -29 190 1 19 46 -85 80 -185 19 -55 37
-100 40 -100 4 0 7 39 8 88 2 106 31 221 75 294 17 29 48 92 69 140 62 138
137 215 255 263 122 50 246 112 284 142 l36 29 -35 28 c-19 15 -69 44 -111 64
-176 81 -351 46 -567 -116 -192 -143 -344 -359 -400 -567 -9 -33 -18 -107 -21
-165 -6 -122 7 -184 78 -371 63 -165 109 -240 202 -335 97 -97 161 -134 377
-219 249 -98 333 -155 429 -292 44 -62 37 -62 -27 -1 -109 102 -188 145 -413
223 -187 64 -224 81 -311 136 -75 49 -182 152 -217 211 -24 41 -32 34 -25 -24
17 -162 67 -307 159 -461 69 -115 185 -266 247 -323 122 -111 290 -190 490
-231 104 -21 142 -24 257 -21 101 3 144 9 169 21 42 21 47 21 31 2 -9 -11 -9
-15 -1 -15 7 0 10 -4 7 -9 -11 -17 198 40 288 78 116 50 191 93 327 186 60 41
109 71 108 67 -1 -9 -151 -139 -196 -170 -19 -13 -78 -46 -131 -74 -132 -68
-67 -51 87 23 190 91 293 171 413 322 86 107 126 181 188 339 22 57 47 115 55
130 22 39 18 43 -16 13 -34 -28 -121 -75 -139 -75 -6 0 34 34 89 75 157 119
236 224 260 348 5 29 19 100 30 159 36 182 25 325 -34 461 -51 119 -93 183
-175 267 -60 61 -94 86 -170 125 -52 26 -126 68 -165 93 -139 89 -265 136
-415 153 -52 6 -96 12 -98 14 -12 12 126 27 203 22 106 -6 158 -24 275 -96 80
-49 121 -70 265 -136 45 -21 85 -53 162 -131 88 -89 108 -116 148 -197 56
-115 74 -200 75 -342 l1 -110 25 30 c40 49 82 147 100 236 25 124 15 248 -31
386 -66 198 -118 282 -281 454 -91 96 -121 136 -156 205 -23 48 -56 97 -71
110 -41 34 -110 32 -212 -9z" />
    <path d="M5410 4603 c-123 -12 -382 -58 -427 -75 -60 -22 -65 -29 -88 -118
-21 -82 -51 -135 -135 -235 -179 -215 -234 -317 -251 -471 -17 -154 -34 -222
-95 -371 -51 -125 -56 -145 -56 -214 -1 -90 21 -147 95 -246 83 -111 172 -169
342 -222 55 -17 144 -52 198 -79 53 -26 97 -47 97 -46 0 0 -20 43 -44 95 -60
128 -86 218 -93 319 -6 80 -10 93 -70 207 -64 125 -84 187 -40 128 12 -16 31
-40 42 -53 l20 -23 -4 58 c-6 106 15 180 101 355 94 193 123 274 137 387 12
94 29 127 69 138 40 10 407 -14 477 -31 33 -9 63 -15 66 -16 3 0 9 33 12 73 4
39 13 94 21 121 14 46 14 53 -3 91 -27 60 -82 109 -167 146 -40 18 -72 34 -70
36 7 7 128 -26 170 -47 24 -11 63 -41 85 -65 23 -25 43 -45 46 -45 2 0 7 16
11 36 5 30 2 40 -20 63 -80 83 -244 123 -426 104z" />
    <path d="M10265 4436 c-44 -19 -125 -51 -180 -72 -273 -100 -439 -216 -501
-349 -25 -55 -46 -171 -37 -206 5 -17 3 -21 -9 -16 -9 3 -26 -2 -38 -10 -18
-12 -21 -22 -17 -48 9 -57 75 -179 153 -286 91 -124 116 -175 118 -243 1 -45
-2 -51 -20 -54 -34 -5 -50 -31 -74 -117 -23 -85 -89 -236 -118 -269 -16 -18
-16 -19 12 -12 96 24 115 18 43 -13 -57 -25 -255 -159 -268 -182 -8 -15 3 -25
71 -65 85 -51 201 -147 251 -210 63 -79 128 -247 174 -454 20 -93 62 -193 113
-273 70 -108 78 -185 26 -226 l-25 -20 22 -43 c61 -120 178 -247 321 -349 56
-40 123 -99 160 -142 135 -155 221 -222 348 -274 99 -40 252 -79 370 -93 148
-18 312 -47 366 -65 27 -9 97 -40 156 -67 137 -65 132 -68 173 112 12 50 25
82 40 96 35 33 40 93 16 208 -28 138 -68 215 -139 272 -139 110 -431 213 -604
214 l-38 0 36 -47 c50 -65 133 -233 115 -233 -4 0 -18 19 -31 41 -33 61 -133
174 -183 208 -70 48 -385 195 -360 169 26 -29 83 -125 83 -141 0 -6 -15 9 -32
34 -70 99 -111 150 -115 145 -3 -3 4 -24 15 -48 28 -58 83 -298 68 -298 -3 0
-17 39 -31 87 -15 49 -38 110 -52 138 -34 67 -94 167 -99 163 -2 -2 3 -22 11
-43 8 -22 14 -62 14 -90 l0 -50 -28 85 c-29 90 -69 175 -77 167 -3 -3 -1 -22
5 -44 6 -21 11 -56 11 -78 l0 -40 -36 69 c-68 131 -128 211 -259 341 -71 72
-176 164 -232 205 -56 41 -100 76 -98 78 5 5 156 -77 235 -126 91 -58 215
-158 263 -213 44 -50 45 -51 57 -29 32 59 51 142 56 235 6 107 4 123 -70 460
-60 276 -85 442 -92 622 -7 183 2 248 52 362 27 61 41 63 25 4 -6 -21 -14 -81
-17 -133 l-5 -95 25 44 c41 69 83 117 135 155 42 31 53 48 82 118 73 183 206
293 382 319 106 16 200 0 285 -46 58 -32 66 -34 120 -27 119 16 217 -7 401
-94 109 -52 261 -153 261 -174 0 -6 5 -10 11 -10 8 0 10 20 7 65 -5 54 -14 80
-55 152 -53 94 -90 182 -118 278 -20 71 -46 110 -86 130 -16 9 -84 27 -152 41
-67 13 -212 52 -322 86 -191 60 -205 62 -305 63 -97 0 -108 -2 -150 -27 -51
-31 -100 -73 -100 -85 0 -4 25 -19 56 -32 66 -29 116 -83 144 -158 21 -56 28
-139 10 -128 -5 3 -10 14 -10 23 0 26 -38 92 -74 130 -58 62 -97 75 -236 80
-118 4 -130 2 -220 -27 -98 -31 -159 -64 -222 -120 -36 -32 -42 -43 -72 -151
-9 -33 -44 -100 -87 -165 -39 -61 -84 -137 -100 -171 -84 -175 -67 -367 46
-522 50 -69 57 -87 20 -52 -14 13 -25 20 -25 17 0 -4 35 -67 79 -140 43 -72
97 -169 120 -215 43 -86 106 -260 97 -269 -3 -3 -16 17 -29 43 -31 65 -114
213 -167 299 -24 39 -61 108 -82 155 -38 84 -97 180 -109 180 -4 0 -10 -17
-14 -37 -3 -20 -33 -116 -66 -213 -32 -97 -67 -216 -77 -266 l-19 -89 -13 45
c-23 82 -9 188 48 360 71 217 92 313 82 375 -4 28 -11 167 -14 310 -5 235 -4
257 9 228 8 -18 20 -61 27 -97 7 -35 15 -63 19 -60 3 2 5 77 3 166 -5 178 5
185 27 23 l14 -100 6 85 c4 47 8 135 9 195 l2 110 14 -55 c8 -30 17 -104 21
-163 l6 -108 30 48 c17 26 45 91 64 143 18 52 46 111 61 130 65 81 214 151
374 176 57 9 109 18 116 20 8 2 -7 29 -40 71 -29 36 -93 123 -143 192 -49 69
-97 127 -105 128 -8 2 -51 -13 -95 -31z m1385 -3927 c0 -6 11 -25 25 -43 14
-18 25 -39 25 -46 0 -8 -13 4 -29 26 -31 43 -51 91 -32 80 6 -4 11 -12 11 -17z" />
    <path d="M2033 4388 c-11 -13 -40 -52 -65 -88 -25 -36 -96 -119 -157 -185
-149 -162 -179 -206 -202 -302 -19 -78 -25 -143 -13 -143 3 0 28 18 54 40 59
50 199 117 343 165 89 30 120 36 181 34 69 -2 76 0 141 39 77 47 116 57 183
48 84 -11 268 -116 286 -162 4 -11 15 -6 43 24 50 52 103 62 204 37 76 -19
223 -86 295 -136 54 -37 57 -24 9 55 -72 120 -182 240 -278 302 -157 102 -214
120 -453 139 -215 17 -268 31 -402 101 -57 30 -113 54 -126 54 -12 0 -32 -10
-43 -22z" />
    <path d="M3521 4335 c-62 -14 -144 -50 -226 -98 -44 -25 -105 -107 -105 -140
0 -12 24 -42 60 -75 69 -62 133 -148 180 -242 18 -36 57 -102 86 -146 30 -45
54 -86 54 -93 0 -6 4 -11 8 -11 4 0 4 42 0 93 -8 96 1 173 29 262 22 70 31 75
22 13 -4 -29 -7 -100 -7 -158 l0 -105 24 110 c27 124 61 232 75 240 11 8 11 8
-6 -105 -19 -125 -19 -123 17 -61 44 75 135 169 220 228 121 83 124 79 20 -24
-141 -139 -253 -308 -302 -452 -18 -55 -20 -72 -12 -125 11 -66 43 -156 57
-159 5 -1 14 17 20 40 22 90 31 67 28 -69 -2 -73 -1 -139 3 -148 3 -9 14 10
26 50 11 36 24 69 29 75 13 13 11 -4 -7 -75 -19 -75 -13 -99 11 -45 30 67 31
8 1 -64 -38 -88 -31 -97 12 -17 21 38 43 71 49 73 12 4 -11 -70 -46 -151 l-21
-48 60 56 c72 66 97 74 46 14 -20 -23 -36 -45 -36 -50 0 -5 24 7 52 27 29 19
59 35 66 35 8 0 -31 -48 -86 -106 -68 -71 -105 -119 -115 -147 -8 -23 -18 -50
-22 -60 -6 -15 -1 -14 30 7 53 36 67 32 21 -6 -32 -26 -66 -79 -66 -103 0 -3
28 17 62 44 34 28 64 49 66 46 2 -2 -20 -32 -50 -67 -99 -119 -118 -143 -118
-152 0 -6 12 2 28 16 15 14 41 33 57 43 23 14 19 8 -16 -26 -46 -44 -90 -112
-104 -159 -6 -20 1 -15 35 23 23 26 46 47 52 47 7 0 7 -4 0 -13 -13 -16 -107
-224 -116 -258 -6 -21 -5 -22 6 -8 20 24 118 98 152 116 28 14 26 10 -19 -38
-50 -53 -125 -151 -125 -163 0 -3 25 12 57 34 31 22 60 40 65 40 5 0 -40 -48
-100 -107 -79 -78 -124 -134 -166 -201 -32 -52 -56 -95 -54 -96 2 -2 48 -10
103 -19 55 -9 120 -23 145 -31 l45 -14 -90 -1 c-99 -1 -206 -21 -255 -46 -18
-9 -71 -50 -118 -91 -48 -41 -106 -81 -129 -90 -42 -16 -43 -18 -43 -63 0 -51
-27 -116 -85 -206 -20 -32 -33 -61 -28 -65 4 -4 46 -36 93 -70 100 -74 181
-114 266 -131 59 -12 64 -11 182 27 67 21 124 45 127 53 3 8 -4 24 -16 37 -20
21 -20 23 -3 22 11 0 62 11 114 25 114 30 254 54 370 63 157 12 179 37 141
155 -35 108 -36 155 -11 313 13 78 20 153 17 167 -4 16 -24 33 -64 54 -52 27
-58 34 -61 64 -5 55 16 155 65 314 52 164 52 160 -21 172 l-41 6 75 37 c71 35
76 40 93 87 38 107 2 347 -75 499 -39 77 -39 79 -24 116 32 80 97 292 92 298
-3 3 -17 -5 -31 -18 -34 -32 -31 -16 10 71 44 94 94 285 88 342 -8 84 -10 89
-44 82 -27 -6 -30 -5 -26 11 3 11 15 71 26 135 21 119 32 153 82 252 16 32 29
62 29 67 0 25 -40 29 -131 14 -112 -19 -291 -21 -374 -5 -100 19 -380 23 -454
6z m615 -2997 c43 -84 39 -101 -5 -24 -18 30 -57 87 -87 125 -29 38 -54 73
-54 78 1 22 115 -117 146 -179z" />
    <path d="M7072 4290 c-35 -10 -95 -37 -135 -60 -68 -38 -237 -122 -390 -193
-82 -38 -147 -103 -185 -185 -22 -46 -27 -75 -30 -152 -2 -53 0 -111 6 -130
l9 -35 22 47 c28 57 101 127 169 162 32 16 62 41 80 68 42 61 121 132 181 162
78 40 154 56 268 56 109 0 145 -11 218 -64 17 -13 69 -41 116 -64 100 -48 160
-107 177 -174 6 -24 20 -79 31 -123 12 -44 28 -105 36 -135 20 -74 19 -125 -6
-206 -21 -69 -68 -168 -75 -161 -3 2 5 33 16 68 28 89 35 174 20 253 -11 62
-30 99 -30 60 0 -9 -23 -54 -50 -100 -58 -95 -119 -149 -225 -200 -66 -32
-295 -104 -377 -119 -21 -4 -38 -10 -38 -14 0 -3 26 -24 57 -46 32 -22 94 -75
139 -118 45 -43 85 -73 88 -68 4 6 48 33 99 62 51 28 128 75 172 104 44 28
119 77 166 108 141 92 241 216 285 354 8 26 18 100 21 163 6 140 -11 233 -62
337 -64 130 -202 226 -371 259 -47 9 -111 31 -159 55 -99 49 -156 56 -243 29z" />
    <path d="M8764 4186 c-43 -19 -47 -38 -19 -93 41 -84 66 -175 72 -262 7 -101
-10 -243 -37 -314 -11 -28 -18 -53 -16 -55 5 -5 78 87 124 156 19 29 37 51 39
48 6 -6 -58 -147 -89 -194 -23 -35 -24 -41 -8 -32 10 5 25 19 32 29 16 23 138
114 144 108 3 -2 -26 -32 -62 -67 -59 -55 -64 -62 -38 -56 40 9 177 -10 214
-29 47 -24 53 -45 29 -111 -14 -42 -19 -72 -15 -104 8 -62 63 -288 93 -385 14
-44 28 -108 31 -142 l7 -63 65 39 c106 64 150 109 202 207 26 49 56 125 68
169 12 44 35 105 52 136 l30 57 -28 53 c-15 30 -48 86 -74 124 -64 95 -207
382 -225 452 -21 80 -19 116 10 177 28 59 26 78 -10 94 -22 10 -172 39 -330
63 -88 13 -225 10 -261 -5z" />
    <path d="M5215 4051 c-3 -6 -10 -46 -16 -91 -11 -90 -44 -188 -114 -336 -118
-249 -138 -381 -75 -503 16 -32 20 -59 20 -128 0 -229 146 -508 330 -633 30
-20 104 -64 163 -96 60 -32 105 -60 100 -61 -5 -2 -71 21 -147 52 -76 30 -139
55 -141 55 -2 0 13 -42 34 -94 34 -82 207 -388 310 -546 88 -137 197 -254 292
-313 141 -90 303 -146 462 -162 l67 -7 32 36 c40 45 49 45 36 2 -18 -59 -2
-126 41 -166 40 -38 51 -42 301 -127 122 -41 185 -57 240 -60 82 -6 62 -13
235 83 33 18 110 47 170 64 157 45 333 141 288 157 -28 10 -11 23 29 23 52 0
195 64 298 134 110 75 236 204 317 326 103 155 99 144 58 181 -41 38 -45 52
-9 39 89 -34 175 15 327 188 166 190 234 300 258 422 9 46 16 60 29 60 10 0
23 7 30 15 18 21 7 134 -20 210 -23 65 -110 445 -110 481 0 12 7 38 16 59 8
20 13 39 10 42 -10 10 -83 23 -133 23 -66 0 -195 -41 -256 -81 -67 -44 -93
-95 -101 -195 -8 -102 -28 -181 -70 -266 -17 -38 -30 -68 -27 -68 2 0 19 12
38 26 19 14 36 24 38 22 3 -2 -36 -48 -85 -103 -50 -54 -88 -100 -85 -103 2
-3 30 18 62 45 69 59 175 135 180 129 5 -5 -160 -165 -227 -222 -62 -52 -28
-37 90 41 94 61 217 122 227 112 2 -3 -30 -24 -72 -47 -42 -23 -103 -66 -135
-95 -33 -30 -98 -80 -145 -112 -82 -54 -103 -83 -36 -49 37 20 41 20 41 2 0
-7 -28 -32 -62 -54 -53 -34 -209 -180 -170 -158 6 4 12 3 12 -1 0 -5 -49 -52
-109 -104 l-109 -96 47 4 c43 3 41 2 -22 -15 -85 -23 -107 -42 -51 -43 l39 0
-50 -16 c-27 -8 -59 -19 -70 -24 -11 -5 -42 -17 -70 -28 l-50 -20 115 -1 c190
-3 182 -15 -18 -30 -100 -7 -185 -17 -187 -21 -3 -4 43 -10 103 -14 59 -3 123
-10 142 -14 32 -8 30 -9 -25 -10 -115 -2 -285 -14 -285 -20 0 -3 48 -16 108
-27 l107 -21 -125 -1 c-69 -1 -158 3 -199 8 -41 6 -76 8 -78 7 -1 -2 38 -34
89 -70 51 -37 88 -67 82 -67 -6 0 -41 15 -80 34 -141 68 -292 106 -429 106
-123 0 -213 -61 -260 -176 l-25 -59 0 39 c0 63 21 115 68 167 l44 49 -64 0
c-34 0 -101 -7 -148 -15 -104 -18 -112 -18 -77 1 46 25 25 27 -49 5 -80 -23
-177 -37 -155 -22 8 5 45 17 83 27 37 10 68 21 68 25 0 10 -108 29 -174 30
-34 0 -83 4 -111 8 l-50 7 66 12 c36 7 73 12 82 12 35 0 15 17 -40 34 -59 18
-237 107 -262 131 -7 7 27 -2 75 -20 49 -18 103 -36 119 -40 27 -6 28 -5 10 6
-59 36 -335 255 -335 266 0 2 38 -16 85 -41 47 -24 85 -42 85 -40 0 3 -22 31
-48 62 -27 31 -91 118 -142 192 -111 160 -173 241 -252 331 -32 37 -58 70 -58
74 0 4 32 -22 71 -56 39 -35 88 -77 108 -94 l36 -30 -19 30 c-11 17 -47 65
-80 109 -84 109 -89 116 -84 121 3 3 32 -23 66 -57 34 -34 64 -59 67 -56 3 2
-29 41 -71 86 -42 45 -73 82 -70 82 3 0 30 -20 61 -45 30 -25 55 -42 55 -38 0
26 -142 242 -210 318 -20 22 -42 49 -50 60 -17 23 93 -70 130 -110 14 -15 43
-41 64 -58 36 -29 38 -29 26 -6 -20 37 -149 229 -182 272 -62 77 -17 44 87
-65 108 -114 118 -114 40 -3 -23 33 -63 95 -90 139 -27 43 -71 102 -98 132
-27 30 -45 54 -40 54 20 0 148 -129 204 -206 34 -46 63 -84 65 -84 1 0 -9 26
-23 58 -14 31 -41 102 -60 156 -19 55 -46 122 -60 149 -13 27 -23 51 -21 53 7
6 92 -110 124 -169 l32 -60 4 114 c4 95 10 129 37 209 18 52 45 121 60 153 15
32 25 59 22 61 -59 37 -537 76 -556 47z m390 -1082 c34 -36 36 -39 10 -22 -40
28 -97 90 -70 75 11 -6 38 -30 60 -53z" />
    <path d="M7000 3950 c-89 -11 -168 -43 -240 -96 -135 -99 -171 -237 -103 -384
l26 -55 12 45 c27 100 60 142 153 189 31 16 42 27 42 44 0 36 54 113 107 151
52 39 157 76 219 77 l39 0 -36 13 c-49 19 -143 25 -219 16z" />
    <path d="M2365 3896 c-27 -13 -59 -33 -69 -45 -18 -19 -26 -21 -95 -15 -70 6
-85 3 -181 -29 -235 -78 -363 -163 -443 -294 -19 -30 -31 -40 -45 -37 -24 7
-190 -105 -259 -175 -34 -34 -66 -80 -87 -125 l-33 -71 7 -160 c6 -127 13
-176 32 -235 27 -82 101 -237 106 -221 2 5 -1 19 -7 30 -14 25 -14 148 -1 156
6 4 10 -8 10 -28 0 -130 122 -332 230 -380 53 -24 230 -38 230 -18 0 6 -4 11
-8 11 -39 0 -262 320 -294 422 -26 84 -20 186 16 260 62 128 136 256 169 294
20 23 60 57 89 77 50 32 197 87 237 87 13 0 16 7 13 34 -9 76 66 156 145 156
54 0 385 -84 426 -107 43 -25 94 -94 108 -146 7 -27 9 -85 6 -162 -6 -130 -28
-223 -77 -332 -33 -73 -180 -331 -216 -380 -37 -49 -153 -237 -149 -241 2 -2
48 -12 102 -23 182 -35 293 -90 361 -178 42 -55 41 -77 -1 -30 -43 49 -85 72
-195 109 -118 40 -292 59 -602 66 -129 3 -264 10 -300 16 -144 24 -341 123
-410 206 -16 20 -30 40 -30 44 0 3 24 -9 53 -29 64 -43 167 -96 174 -89 3 3
-28 38 -69 78 -73 72 -137 174 -167 269 -16 49 -41 205 -41 259 l-1 45 -67
-71 c-37 -39 -82 -100 -100 -135 -37 -72 -100 -311 -109 -409 -6 -73 -4 -77
85 -140 24 -17 50 -47 59 -68 50 -115 65 -130 190 -190 l78 -37 220 0 c215 0
222 1 305 29 l85 28 280 -5 c228 -4 297 -9 370 -25 97 -21 205 -59 205 -71 0
-4 -32 1 -71 11 -110 28 -274 41 -421 34 -285 -13 -353 -19 -373 -32 -40 -26
-204 -47 -376 -48 -192 -1 -186 8 -69 -102 210 -197 417 -321 609 -365 40 -9
47 -7 91 21 106 68 218 101 445 130 106 13 164 25 175 35 10 9 23 36 30 61 16
57 87 125 313 298 185 142 281 238 350 349 65 104 65 100 5 118 l-53 17 50 1
c94 2 193 68 250 166 45 77 59 156 59 330 0 183 -11 241 -74 364 -66 130 -60
129 -109 2 -58 -150 -80 -158 -46 -16 8 33 15 94 15 137 0 67 -4 84 -33 139
-41 81 -129 156 -263 226 -167 86 -276 106 -331 59 l-27 -24 68 -73 c51 -55
80 -99 116 -174 54 -112 112 -285 131 -390 l13 -68 13 49 c7 27 13 69 14 94 1
79 18 13 18 -75 1 -55 -10 -134 -34 -250 -57 -275 -61 -288 -190 -560 -140
-297 -184 -413 -206 -545 -17 -107 -32 -113 -24 -10 15 212 60 349 250 760 58
126 85 207 85 254 l-1 31 -13 -25 c-8 -14 -22 -49 -31 -78 -10 -29 -19 -51
-22 -49 -2 3 -6 44 -9 93 -10 187 -54 304 -181 482 -117 164 -173 224 -242
259 l-62 33 36 17 c35 17 37 17 83 -7 107 -57 399 -485 438 -643 11 -45 24
-12 24 61 0 82 -31 236 -71 349 -65 182 -145 311 -271 434 -162 158 -290 203
-413 145z m451 -1180 c-8 -42 -28 -109 -44 -150 -33 -85 -99 -206 -112 -206
-5 0 -2 21 6 48 19 58 58 218 72 292 11 53 11 52 7 -32 -2 -49 -2 -88 0 -88 2
0 18 46 36 103 34 110 38 121 46 113 3 -2 -2 -38 -11 -80z" />
    <path d="M1474 3866 c-62 -15 -181 -70 -260 -122 -33 -20 -97 -60 -144 -87
-205 -120 -219 -135 -239 -265 -6 -40 -29 -120 -51 -179 -50 -131 -70 -208
-70 -262 0 -22 12 -100 26 -172 14 -72 23 -133 20 -136 -8 -8 -46 77 -46 105
0 15 -6 22 -18 22 -23 0 -117 -32 -163 -55 -44 -22 -158 -114 -231 -185 -31
-30 -97 -95 -147 -144 -50 -49 -91 -96 -91 -106 0 -9 33 -46 74 -83 66 -59 80
-79 142 -198 205 -398 296 -491 614 -625 l125 -53 0 -43 c0 -39 2 -43 27 -46
42 -5 65 13 115 91 59 92 136 166 214 204 l62 30 -74 28 c-96 37 -198 85 -206
98 -4 7 0 8 13 2 45 -19 165 -48 172 -41 12 13 -57 64 -136 102 -39 20 -72 38
-72 40 0 10 65 -8 98 -27 30 -17 26 -11 -27 49 -51 57 -88 85 -217 162 -158
95 -245 136 -395 190 -69 25 -76 29 -39 24 25 -4 103 -24 175 -44 71 -21 132
-37 133 -35 2 2 -45 27 -104 56 -60 29 -104 54 -98 56 5 2 56 -12 112 -31
l102 -35 -55 51 c-91 83 -90 77 -41 268 24 91 51 190 61 220 39 121 117 244
207 331 56 53 60 60 68 118 10 74 41 141 88 193 19 21 102 88 183 149 l149
111 0 67 c0 58 12 122 35 199 6 19 4 22 -16 21 -13 0 -47 -6 -75 -13z" />
    <path d="M7105 3839 c-61 -15 -115 -57 -137 -108 -10 -24 -17 -45 -15 -47 2
-2 19 1 38 6 101 29 193 -12 244 -109 14 -25 41 -64 60 -85 45 -51 46 -33 1
99 -19 55 -33 102 -31 104 10 9 70 -69 96 -124 25 -52 29 -72 29 -147 0 -105
8 -107 75 -13 67 94 76 121 64 195 -17 107 -64 175 -149 213 -52 24 -208 33
-275 16z" />
    <path d="M6498 3653 c-96 -99 -115 -164 -72 -244 35 -64 139 -162 246 -232
102 -67 151 -82 219 -68 28 6 63 11 79 11 49 0 34 14 -35 34 -81 23 -199 99
-260 169 -98 109 -147 275 -110 370 13 31 -10 18 -67 -40z" />
    <path d="M10928 3637 c-165 -62 -276 -225 -318 -464 -11 -63 1 -218 18 -235 4
-4 24 26 45 67 22 42 67 105 104 145 62 66 150 130 182 130 7 0 38 22 68 50
63 58 99 70 208 70 89 0 140 -18 203 -70 l36 -30 13 23 c18 32 16 62 -6 105
-30 59 -88 106 -199 163 -103 52 -104 53 -210 56 -74 2 -118 -1 -144 -10z" />
    <path d="M6237 3613 c-29 -54 -47 -168 -47 -292 0 -111 2 -121 30 -177 19 -39
64 -96 132 -166 l103 -107 155 -25 c135 -22 291 -64 397 -107 29 -12 33 -11
66 18 19 17 41 33 49 35 9 4 6 11 -12 26 -46 40 -244 169 -355 232 -150 86
-220 134 -289 199 -121 115 -186 224 -204 344 l-8 52 -17 -32z" />
    <path d="M6916 3616 c-71 -30 -126 -72 -145 -112 -8 -16 -17 -56 -19 -89 -4
-59 -3 -61 38 -101 23 -23 72 -57 108 -75 61 -32 73 -34 161 -34 53 0 118 6
145 14 57 17 121 73 132 116 10 41 -21 93 -80 133 -39 26 -58 32 -102 32 -45
0 -59 -5 -86 -29 -32 -29 -33 -31 -33 -110 1 -63 5 -84 20 -100 30 -35 1 -23
-32 12 -50 52 -66 93 -61 154 8 92 54 132 163 142 l60 6 -39 30 c-55 42 -146
46 -230 11z" />
    <path d="M11440 3583 c0 -5 18 -26 40 -48 51 -50 75 -110 67 -173 l-5 -47 64
-29 c109 -49 197 -124 237 -203 35 -66 67 -204 67 -282 0 -92 -12 -121 -114
-275 -51 -77 -98 -135 -148 -179 -40 -36 -69 -69 -65 -73 10 -11 206 40 270
69 111 51 217 176 276 323 52 134 69 355 33 435 -22 50 -161 219 -224 274 -99
85 -296 182 -405 200 -21 4 -50 9 -65 11 -16 3 -28 2 -28 -3z" />
    <path d="M2064 3495 c-19 -19 -24 -34 -22 -58 3 -30 10 -36 103 -84 55 -29
118 -57 140 -63 64 -17 101 -36 146 -77 53 -48 119 -179 119 -237 0 -58 15
-34 39 63 28 115 27 202 -3 287 -14 37 -33 76 -44 86 -21 22 -352 107 -415
108 -27 0 -45 -7 -63 -25z" />
    <path d="M12105 3460 c-3 -5 -3 -44 1 -86 7 -75 9 -79 57 -132 68 -76 88 -124
94 -238 l6 -95 50 -62 c98 -124 108 -168 77 -345 l-23 -123 23 -76 c18 -61 22
-93 18 -164 -4 -86 -3 -89 16 -83 19 6 83 54 144 109 56 50 136 160 163 224
25 60 31 92 40 213 9 119 16 155 40 216 47 119 48 116 -92 222 -46 35 -149
128 -229 205 -147 143 -179 165 -299 206 -61 21 -77 23 -86 9z" />
    <path d="M11150 3329 c-66 -20 -103 -58 -125 -129 -8 -24 -8 -24 19 -7 35 23
33 12 -7 -37 -45 -54 -53 -72 -61 -130 -6 -52 2 -132 14 -119 4 4 15 31 25 58
20 55 50 103 77 123 9 7 15 19 12 26 -7 17 64 46 132 53 99 10 199 -30 339
-135 134 -101 159 -321 51 -449 -15 -18 -25 -33 -22 -33 17 0 160 77 202 109
59 44 75 84 77 192 1 67 -2 83 -31 141 -53 109 -197 222 -310 244 l-33 7 32
-52 c28 -45 62 -140 53 -150 -7 -8 -29 17 -78 92 -29 45 -70 97 -91 116 -76
67 -198 102 -275 80z" />
    <path d="M1913 3316 c-158 -40 -285 -158 -313 -291 -18 -87 24 -238 87 -310
37 -42 116 -94 186 -123 57 -23 94 -31 177 -36 58 -4 148 -13 200 -21 52 -7
96 -12 96 -11 1 0 36 62 78 136 96 168 103 192 89 276 -25 143 -126 272 -234
299 l-27 7 25 -51 c20 -39 25 -67 26 -123 1 -64 -4 -81 -32 -137 -18 -35 -56
-89 -84 -119 -82 -87 -150 -108 -250 -78 -34 10 -47 11 -47 3 0 -34 25 -92 52
-122 16 -19 27 -35 24 -35 -22 0 -64 33 -78 62 -9 18 -40 82 -69 141 -47 97
-53 116 -53 175 -1 56 4 75 26 113 50 85 132 136 262 163 43 9 89 16 102 16
37 0 29 14 -27 44 -60 33 -140 42 -216 22z" />
    <path d="M10501 3183 c-55 -62 -111 -177 -120 -244 -8 -66 3 -196 27 -308 l17
-83 105 -38 c58 -20 143 -58 190 -85 298 -169 363 -190 578 -183 109 4 148 9
192 26 68 27 148 105 220 216 l51 78 -33 -20 c-18 -11 -69 -33 -113 -47 -69
-23 -100 -27 -225 -30 -275 -6 -350 -10 -350 -17 0 -3 4 -8 8 -10 9 -4 142
-156 142 -162 0 -17 -77 33 -149 96 -48 41 -111 92 -141 115 -30 22 -98 85
-150 139 -74 77 -105 119 -138 184 -57 114 -79 228 -66 339 5 45 6 81 3 81 -4
0 -26 -21 -48 -47z" />
    <path d="M10887 3155 c-31 -25 -75 -68 -98 -97 -54 -69 -121 -202 -112 -225
15 -42 97 -144 180 -224 112 -108 135 -124 161 -110 11 6 22 8 25 5 3 -3 14
-3 25 0 18 6 16 13 -26 93 -57 109 -98 225 -118 331 -16 86 -14 127 12 216 8
27 13 51 11 52 -2 2 -28 -17 -60 -41z" />
    <path d="M2010 3171 c-82 -22 -125 -47 -164 -95 -29 -35 -31 -44 -31 -114 0
-56 5 -88 19 -115 21 -42 36 -35 36 17 0 104 127 216 243 216 46 0 113 -27
122 -48 6 -15 8 -15 15 3 11 25 12 97 2 111 -33 47 -125 57 -242 25z" />
    <path d="M11177 3085 c-53 -18 -86 -51 -113 -113 -13 -29 -24 -56 -24 -61 0
-5 21 2 47 15 30 16 64 24 95 24 41 0 54 -5 86 -35 21 -19 51 -39 67 -45 30
-11 81 -5 103 12 19 16 14 65 -14 125 -21 44 -34 59 -68 74 -48 22 -125 24
-179 4z" />
    <path d="M11477 3008 c4 -12 8 -88 8 -168 0 -140 -2 -147 -29 -200 -15 -30
-39 -70 -53 -87 l-24 -33 56 0 c31 0 69 7 84 15 67 34 131 147 131 229 0 74
-29 139 -87 194 -31 29 -64 57 -75 63 -18 10 -19 8 -11 -13z" />
    <path d="M2043 3010 c-56 -23 -138 -137 -131 -183 9 -64 155 -61 226 6 40 37
75 105 68 132 -11 45 -101 70 -163 45z" />
    <path d="M1520 2873 c-41 -110 -16 -236 62 -309 67 -64 199 -110 344 -120 51
-4 94 -10 94 -15 0 -4 -33 -10 -73 -14 -77 -7 -249 16 -274 37 -21 17 -15 1
21 -55 18 -28 47 -75 65 -104 l32 -52 62 -5 c34 -3 118 -8 187 -11 l125 -6 47
88 c26 48 58 105 70 125 12 21 20 40 17 42 -2 2 -26 7 -54 10 -27 3 -94 10
-148 16 -120 14 -192 32 -256 64 -100 51 -228 195 -266 301 -10 28 -22 54 -26
58 -4 5 -17 -17 -29 -50z" />
    <path d="M11115 2884 c-28 -14 -61 -37 -74 -49 l-24 -24 27 -78 c16 -43 43
-111 62 -152 l34 -74 93 6 c119 8 140 16 170 69 60 102 68 210 16 216 -100 10
-108 13 -164 62 -31 28 -64 50 -73 50 -10 0 -40 -12 -67 -26z" />
    <path d="M12215 2723 c-57 -164 -124 -273 -219 -361 -30 -28 -59 -69 -85 -124
-65 -136 -170 -224 -341 -284 l-65 -23 103 0 c57 -1 101 -5 98 -9 -3 -5 -76
-12 -163 -15 -87 -3 -243 -15 -348 -26 -114 -13 -258 -21 -360 -21 -93 0 -199
-3 -235 -6 l-65 -6 -29 -117 c-16 -64 -31 -126 -33 -138 -4 -18 10 -33 78 -84
82 -60 300 -173 424 -218 122 -45 266 -37 415 23 105 43 320 188 320 216 0 4
-62 8 -137 7 -122 0 -157 4 -298 36 -162 36 -314 60 -460 73 -62 6 -73 9 -50
15 66 15 226 8 391 -17 338 -51 468 -56 602 -24 110 26 165 57 237 129 45 46
66 61 88 61 47 0 90 25 150 88 99 105 123 193 91 342 -23 108 -23 181 -1 297
14 71 16 101 8 131 -11 40 -67 132 -81 132 -4 0 -20 -35 -35 -77z" />
    <path d="M4629 2570 c-105 -18 -158 -65 -221 -195 -49 -101 -158 -431 -158
-478 0 -44 9 -53 114 -116 86 -52 142 -105 172 -162 13 -25 15 -48 11 -95 -7
-71 -2 -79 63 -116 50 -29 144 -118 230 -217 30 -35 89 -90 130 -124 104 -83
304 -174 422 -192 42 -6 43 -8 43 -43 0 -67 62 -90 310 -113 150 -14 453 -6
558 15 129 26 257 86 347 164 34 29 35 30 17 50 -10 11 -37 32 -61 47 -23 15
-57 48 -74 75 l-31 48 -105 7 c-111 7 -135 4 -178 -27 -16 -11 -28 -15 -28 -9
0 5 10 17 23 26 19 13 20 17 7 25 -27 17 -94 10 -150 -15 l-55 -25 43 38 c23
21 42 41 42 45 0 9 -51 -2 -68 -16 -17 -14 -28 -1 -13 16 9 12 5 16 -20 21
-25 5 -47 -2 -101 -30 -39 -19 -72 -33 -74 -31 -2 2 25 24 60 50 35 26 68 53
75 61 20 24 -54 29 -158 11 -52 -9 -95 -14 -98 -11 -6 6 93 36 118 36 9 0 19
9 22 19 3 14 -12 36 -55 77 -33 33 -102 122 -153 200 -52 78 -109 154 -127
169 -18 15 -78 50 -132 77 -55 26 -102 51 -105 54 -12 13 74 -8 127 -32 30
-13 57 -22 59 -20 9 9 -122 86 -179 105 -97 32 -271 71 -393 88 -60 8 -112 17
-114 19 -2 2 42 4 98 4 114 0 359 -37 457 -69 l59 -20 -25 21 c-40 32 -129 74
-244 114 -59 20 -105 39 -102 41 7 7 125 -18 224 -47 50 -16 92 -27 92 -25 0
4 -154 92 -217 124 -34 17 -64 35 -68 40 -6 11 139 -39 199 -69 22 -11 41 -18
43 -17 5 5 -189 138 -322 221 -69 43 -124 80 -122 82 5 6 219 -95 285 -135 29
-17 56 -31 59 -31 24 0 -148 133 -239 185 -72 42 -17 28 82 -20 51 -25 95 -44
97 -41 5 5 -110 87 -152 109 -94 47 -252 73 -346 57z" />
    <path d="M9196 2458 c-27 -86 -45 -126 -90 -203 -30 -49 -85 -126 -123 -170
-37 -44 -84 -100 -104 -125 l-36 -45 111 3 c61 2 129 -1 151 -6 l40 -10 -60
-1 c-58 -1 -240 -30 -233 -37 2 -2 67 -8 144 -13 129 -9 282 -34 311 -49 6 -4
-84 -5 -200 -3 -198 3 -370 -9 -405 -29 -8 -4 19 -10 60 -13 89 -8 197 -35
306 -77 82 -31 118 -62 41 -35 -69 25 -319 65 -399 65 -43 -1 -82 -6 -91 -13
-16 -12 -104 -128 -120 -158 -7 -15 0 -20 44 -34 61 -20 88 -40 42 -31 -16 3
-50 8 -75 11 l-45 6 -113 -105 c-99 -92 -127 -113 -230 -164 -64 -32 -177 -95
-251 -140 -90 -55 -158 -89 -205 -103 -84 -24 -321 -98 -354 -110 -33 -13 -17
-37 75 -110 92 -73 164 -110 280 -145 81 -25 102 -27 263 -27 195 1 321 13
520 49 184 34 323 69 386 98 68 31 98 83 90 157 l-5 48 43 -20 42 -21 60 30
c68 35 188 123 289 212 174 154 321 220 493 220 98 0 109 49 35 157 -70 102
-100 175 -142 344 -69 277 -148 418 -294 520 -98 69 -240 113 -251 77z" />
    <path d="M10444 2453 c30 -104 89 -432 90 -504 l1 -86 39 13 c44 16 158 30
326 39 296 17 584 60 684 102 115 48 220 134 260 212 9 17 15 31 14 31 -2 0
-55 -13 -118 -29 -145 -37 -343 -55 -513 -48 -158 6 -236 26 -339 87 -40 24
-107 63 -148 87 -59 34 -265 113 -295 113 -4 0 -4 -8 -1 -17z" />
    <path d="M3583 2396 c-29 -21 -57 -60 -93 -124 -61 -110 -148 -222 -211 -273
-24 -19 -91 -69 -149 -109 -196 -138 -288 -219 -321 -282 -31 -60 -27 -69 29
-61 26 3 45 3 42 1 -3 -3 -48 -22 -100 -41 -64 -24 -142 -42 -239 -57 -222
-34 -309 -62 -431 -138 -64 -41 -182 -152 -212 -200 -11 -18 -23 -31 -25 -28
-8 8 16 63 58 134 21 34 36 62 33 62 -16 0 -72 -37 -112 -73 -25 -23 -40 -33
-35 -22 6 11 32 40 58 64 35 32 43 46 33 52 -16 10 -54 2 -95 -22 -42 -23 -42
-17 -1 20 l32 28 -65 -9 c-35 -4 -93 -22 -128 -38 -35 -17 -66 -30 -69 -30
-11 0 85 70 119 87 30 14 34 19 21 25 -30 12 -121 8 -198 -8 -42 -8 -81 -13
-87 -11 -14 5 175 67 206 68 21 0 21 1 2 8 -11 5 -43 12 -70 15 -77 11 -93 28
-22 23 31 -2 57 -2 57 -1 0 2 -21 13 -47 24 -54 24 -106 22 -169 -7 -67 -30
-112 -72 -186 -171 -95 -128 -122 -188 -122 -274 -1 -59 2 -70 30 -105 17 -21
69 -61 115 -90 107 -66 167 -131 198 -214 37 -98 70 -164 91 -177 16 -10 38
-4 131 34 68 28 171 59 263 79 177 40 190 44 276 80 88 37 100 49 100 102 0
46 6 51 36 28 11 -8 41 -14 71 -15 45 0 67 8 151 54 250 137 333 206 439 367
72 111 93 162 93 229 0 47 1 49 38 60 106 34 269 191 347 335 94 172 133 309
153 535 5 52 9 96 8 96 -1 1 -20 -12 -43 -30z m-1851 -1523 c-25 -37 -72 -119
-104 -182 -62 -124 -73 -132 -33 -24 31 83 64 140 123 216 62 79 72 72 14 -10z" />
    <path d="M12535 2073 c-79 -24 -125 -61 -192 -158 -70 -101 -81 -111 -208
-197 -49 -33 -82 -58 -72 -54 10 3 69 9 130 12 114 7 212 -3 297 -30 42 -13
34 -13 -112 -10 -98 2 -158 0 -158 -6 0 -6 9 -10 21 -10 12 0 61 -13 109 -30
127 -42 432 -199 390 -200 -9 0 -20 4 -25 8 -17 15 -205 88 -295 116 -193 58
-355 69 -470 32 l-45 -14 85 -2 c47 0 103 -5 125 -9 37 -7 34 -8 -40 -15 -99
-8 -214 -29 -291 -53 l-59 -18 125 -8 c223 -14 229 -21 25 -28 -157 -5 -199
-10 -239 -26 l-50 -20 100 -1 c54 -1 113 -6 129 -11 l30 -9 -30 -1 c-26 -1
-65 -8 -228 -41 -54 -11 -57 -20 -6 -20 24 0 80 -11 124 -24 l80 -23 -185 3
c-145 3 -180 2 -160 -7 156 -71 208 -101 329 -186 78 -54 153 -104 166 -111
64 -33 290 -42 453 -18 91 14 120 24 95 33 -26 9 -12 18 31 19 56 2 109 21
281 103 l140 66 96 1 c52 0 101 4 108 8 20 12 11 49 -64 266 -89 257 -122 328
-182 388 -43 43 -47 51 -39 75 13 35 -4 66 -69 130 -54 53 -135 97 -175 96
-14 0 -47 -7 -75 -16z" />
    <path d="M9695 1266 c-86 -28 -141 -55 -222 -109 -59 -39 -63 -44 -63 -80 0
-22 7 -54 16 -73 14 -28 20 -32 43 -28 23 5 27 2 29 -20 7 -94 98 -253 219
-386 112 -123 150 -183 188 -294 25 -73 42 -86 88 -64 49 23 230 162 286 219
86 88 155 251 130 312 -6 15 -15 27 -19 27 -16 0 -180 126 -263 202 -48 44
-90 79 -91 77 -2 -2 1 -62 7 -134 6 -73 7 -156 2 -190 l-8 -60 -23 160 c-13
88 -28 179 -34 202 -5 23 -10 56 -10 73 0 18 -4 29 -10 25 -5 -3 -10 -16 -10
-28 0 -23 -57 -153 -64 -146 -2 2 6 52 19 111 24 118 24 124 -31 195 -21 28
-31 33 -67 33 -23 -1 -73 -11 -112 -24z" />
    <path d="M2996 1013 c-3 -3 -6 -86 -6 -184 0 -188 -13 -244 -24 -106 -4 45
-10 107 -15 137 -7 50 -8 53 -18 30 -61 -145 -129 -416 -135 -532 -1 -27 -6
-48 -10 -48 -12 0 -1 211 17 314 8 48 31 136 50 195 19 59 35 112 35 116 0 5
-10 0 -22 -11 -36 -31 -220 -143 -318 -193 -48 -24 -64 -138 -31 -232 40 -117
76 -164 118 -157 14 2 27 -25 65 -132 42 -119 65 -160 89 -160 3 0 44 37 91
82 46 46 119 116 162 156 42 41 84 89 94 108 12 26 18 31 24 20 14 -25 46 -6
108 62 83 90 124 175 128 267 4 71 4 72 -24 83 -16 6 -45 13 -66 17 -45 7
-133 53 -217 114 -84 60 -87 62 -95 54z" />
  </g>
</svg>
